<?xml version="1.0" encoding="UTF-8"?>
<svg id="Layer_2" data-name="Layer 2" xmlns="http://www.w3.org/2000/svg" xmlns:xlink="http://www.w3.org/1999/xlink" viewBox="0 0 445 445">
  <defs>
    <filter id="luminosity-noclip" x="388.17" y="332.68" width="49.29" height="49.29" color-interpolation-filters="sRGB" filterUnits="userSpaceOnUse">
      <feFlood flood-color="#fff" result="bg"/>
      <feBlend in="SourceGraphic" in2="bg"/>
    </filter>
    <mask id="mask" x="388.17" y="332.68" width="49.29" height="49.29" maskUnits="userSpaceOnUse">
      <g style="filter: url(#luminosity-noclip);">
        <rect x="402.66" y="347.17" width="20.29" height="20.29" transform="translate(825.63 714.63) rotate(180)"/>
      </g>
    </mask>
    <filter id="luminosity-noclip-2" x="355.89" y="187.88" width="49.29" height="49.29" color-interpolation-filters="sRGB" filterUnits="userSpaceOnUse">
      <feFlood flood-color="#fff" result="bg"/>
      <feBlend in="SourceGraphic" in2="bg"/>
    </filter>
    <mask id="mask-1" x="355.89" y="187.88" width="49.29" height="49.29" maskUnits="userSpaceOnUse">
      <g style="filter: url(#luminosity-noclip-2);">
        <rect x="370.39" y="202.37" width="20.29" height="20.29" transform="translate(761.08 425.04) rotate(180)"/>
      </g>
    </mask>
    <filter id="luminosity-noclip-3" x="393.82" y="102.43" width="49.29" height="49.29" color-interpolation-filters="sRGB" filterUnits="userSpaceOnUse">
      <feFlood flood-color="#fff" result="bg"/>
      <feBlend in="SourceGraphic" in2="bg"/>
    </filter>
    <mask id="mask-2" x="393.82" y="102.43" width="49.29" height="49.29" maskUnits="userSpaceOnUse">
      <g style="filter: url(#luminosity-noclip-3);">
        <rect x="408.31" y="116.93" width="20.29" height="20.29" transform="translate(836.92 254.15) rotate(180)"/>
      </g>
    </mask>
    <filter id="luminosity-noclip-4" x="342.43" y="27.75" width="49.29" height="49.29" color-interpolation-filters="sRGB" filterUnits="userSpaceOnUse">
      <feFlood flood-color="#fff" result="bg"/>
      <feBlend in="SourceGraphic" in2="bg"/>
    </filter>
    <mask id="mask-3" x="342.43" y="27.75" width="49.29" height="49.29" maskUnits="userSpaceOnUse">
      <g style="filter: url(#luminosity-noclip-4);">
        <rect x="356.93" y="42.25" width="20.29" height="20.29" transform="translate(734.15 104.78) rotate(180)"/>
      </g>
    </mask>
    <filter id="luminosity-noclip-5" x="288.81" y="357.23" width="49.29" height="49.29" color-interpolation-filters="sRGB" filterUnits="userSpaceOnUse">
      <feFlood flood-color="#fff" result="bg"/>
      <feBlend in="SourceGraphic" in2="bg"/>
    </filter>
    <mask id="mask-4" x="288.81" y="357.23" width="49.29" height="49.29" maskUnits="userSpaceOnUse">
      <g style="filter: url(#luminosity-noclip-5);">
        <rect x="303.31" y="371.72" width="20.29" height="20.29" transform="translate(-68.41 695.34) rotate(-90)"/>
      </g>
    </mask>
  </defs>
  <g style="mask: url(#mask);">
    <circle cx="412.81" cy="357.32" r="24.64"/>
  </g>
  <rect x="241.16" y="116.93" width="20.29" height="200.02"/>
  <rect x="323.42" y="52.98" width="20.29" height="148.2" transform="translate(460.65 -206.48) rotate(90)"/>
  <rect x="277.72" y="79.21" width="55.42" height="20" transform="translate(216.22 394.65) rotate(-90)"/>
  <path d="M251.31,116.95c4.47-40.4-15.03-78.65-48.43-95.71-27.52-14.06-70.71-16.84-97.29,11.53-27.33,29.17-17.74,70.63-16.89,74.08" style="fill: none; stroke: #000; stroke-linecap: round; stroke-miterlimit: 10; stroke-width: 20px;"/>
  <path d="M81.75,85.61c-31.49,1.65-57.53,24.23-63.01,53.56-4.78,25.54,6.8,52.17,29.35,67.2" style="fill: none; stroke: #000; stroke-linecap: round; stroke-miterlimit: 10; stroke-width: 20px;"/>
  <path d="M68.29,198.87c-7.92,2.31-22.35,7.73-35,20.78-18.53,19.11-29.02,50.26-18.64,80.93,9.51,28.1,34.11,48.59,63.52,52.92" style="fill: none; stroke: #000; stroke-linecap: round; stroke-miterlimit: 10; stroke-width: 20px;"/>
  <path d="M49.71,346.18c13.34,48.69,53.18,82.69,94.55,84.29,55.17,2.14,111.46-53.39,106.29-126.26" style="fill: none; stroke: #000; stroke-linecap: round; stroke-miterlimit: 10; stroke-width: 20px;"/>
  <path d="M250.55,304.2c.46-8.43.61-32.08-14.83-55.21-21.87-32.77-57.71-38.52-63.66-39.37" style="fill: none; stroke: #000; stroke-linecap: round; stroke-miterlimit: 10; stroke-width: 20px;"/>
  <rect x="387.81" y="311.47" width="50" height="20" transform="translate(91.34 734.28) rotate(-90)"/>
  <rect x="315.14" y="202.52" width="55.11" height="20" transform="translate(685.39 425.04) rotate(180)"/>
  <rect x="321.51" y="235.59" width="20.29" height="142.4" transform="translate(638.45 -24.87) rotate(90)"/>
  <g style="mask: url(#mask-1);">
    <circle cx="380.54" cy="212.52" r="24.64"/>
  </g>
  <rect x="295.46" y="42.39" width="60" height="20" transform="translate(650.92 104.79) rotate(-180)"/>
  <g style="mask: url(#mask-2);">
    <circle cx="418.46" cy="127.08" r="24.64"/>
  </g>
  <g style="mask: url(#mask-3);">
    <circle cx="367.08" cy="52.39" r="24.64"/>
  </g>
  <rect x="294.8" y="136.14" width="20.29" height="160.33" transform="translate(609.9 432.61) rotate(180)"/>
  <rect x="285.9" y="334.03" width="55.11" height="20" transform="translate(-30.57 657.49) rotate(-90)"/>
  <g style="mask: url(#mask-4);">
    <circle cx="313.46" cy="381.87" r="24.64"/>
  </g>
  <path d="M118.92,159.75c30.56,15.6,65.05,1.88,74.81-22.51,7.31-18.25.51-41.87-17.55-57.16" style="fill: none; stroke: #000; stroke-linecap: round; stroke-miterlimit: 10; stroke-width: 20px;"/>
  <path d="M143.2,373.12c26.96-19.01,32.41-56.13,14.57-80.16-18.9-25.47-59.18-29.81-84.79-5.91" style="fill: none; stroke: #000; stroke-linecap: round; stroke-miterlimit: 10; stroke-width: 20px;"/>
</svg>