<?xml version="1.0" encoding="UTF-8"?>
<svg id="Layer_1" data-name="Layer 1" xmlns="http://www.w3.org/2000/svg" xmlns:xlink="http://www.w3.org/1999/xlink" viewBox="0 0 445 445">
  <defs>
    <filter id="luminosity-noclip" x="146.11" y="70.48" width="142.17" height="142.17" color-interpolation-filters="sRGB" filterUnits="userSpaceOnUse">
      <feFlood flood-color="#fff" result="bg"/>
      <feBlend in="SourceGraphic" in2="bg"/>
    </filter>
    <mask id="mask" x="146.11" y="70.48" width="142.17" height="142.17" maskUnits="userSpaceOnUse">
      <g style="filter: url(#luminosity-noclip);">
        <rect x="187.93" y="112.3" width="58.53" height="58.53" transform="translate(75.64 358.77) rotate(-90)"/>
      </g>
    </mask>
  </defs>
  <rect x="7.24" y="325.48" width="216.77" height="20.29" transform="translate(451.25 220) rotate(90)"/>
  <rect x="125.77" y="423.72" width="20.29" height="20.29"/>
  <circle cx="216.5" cy="141.57" r="130.67" style="fill: none; stroke: #000; stroke-miterlimit: 10; stroke-width: 20px;"/>
  <rect x="207.97" y="323.11" width="221.51" height="20.29" transform="translate(651.98 14.53) rotate(90)"/>
  <rect x="186.06" y="362.42" width="20.29" height="20.29"/>
  <rect x="206.35" y="342.13" width="20.29" height="20.29"/>
  <rect x="227.41" y="362.42" width="20.29" height="20.29"/>
  <rect x="247.7" y="382.72" width="20.29" height="20.29"/>
  <g style="mask: url(#mask);">
    <circle cx="217.2" cy="141.57" r="71.09"/>
  </g>
  <rect x="166.06" y="382.72" width="20.29" height="20.29"/>
  <rect x="145.77" y="403.01" width="20.29" height="20.29"/>
  <rect x="267.99" y="403.01" width="20.29" height="20.29"/>
  <rect x="288.29" y="423.72" width="20.29" height="20.29"/>
</svg>