<?xml version="1.0" encoding="UTF-8"?>
<svg id="Layer_1" data-name="Layer 1" xmlns="http://www.w3.org/2000/svg" viewBox="0 0 445 445">
  <path d="M50.98,227.87c-3.37-55.14,24.69-107.59,72.28-135.09,46.4-26.81,104.16-25.73,149.85,2.74" style="fill: none; stroke: #000; stroke-miterlimit: 10; stroke-width: 20px;"/>
  <path d="M261.59,95.29c27.27-35.1,76.98-39.91,107.04-14.91,25.47,21.18,32.98,60.56,15.5,93.13" style="fill: none; stroke: #000; stroke-miterlimit: 10; stroke-width: 20px;"/>
  <path d="M372.46,173.88c53.65,30.29,74.06,91.52,53.64,135.89-21.68,47.12-79.91,54.6-83.17,54.97" style="fill: none; stroke: #000; stroke-miterlimit: 10; stroke-width: 20px;"/>
  <path d="M57.78,218.28c-33.83,15.35-52.32,51.91-44.81,86.66,6.78,31.37,33.55,55.6,66.59,59.8" style="fill: none; stroke: #000; stroke-miterlimit: 10; stroke-width: 20px;"/>
  <rect x="78.27" y="354.59" width="265.71" height="20.29"/>
  <rect x="139.25" y="159.89" width="30" height="20" transform="translate(324.15 15.64) rotate(90)"/>
  <rect x="235.06" y="231.71" width="20.29" height="20.29"/>
  <rect x="176.35" y="193.3" width="97.11" height="20.29" transform="translate(428.36 -21.46) rotate(90)"/>
  <rect x="280.2" y="159.89" width="30" height="20" transform="translate(465.1 -125.31) rotate(90)"/>
  <rect x="182.82" y="288.43" width="90.23" height="20.29"/>
  <rect x="272.92" y="267.28" width="20.29" height="20.29"/>
  <rect x="162.53" y="268.14" width="20.29" height="20.29"/>
</svg>