<?xml version="1.0" encoding="UTF-8"?>
<svg id="Layer_1" data-name="Layer 1" xmlns="http://www.w3.org/2000/svg" viewBox="0 0 445 445">
  <rect x="125.5" y="260.33" width="71.76" height="20.29" transform="translate(238.52 -34.89) rotate(45)"/>
  <rect x="158.32" y="208.55" width="182.87" height="20.29" transform="translate(-81.49 240.66) rotate(-45)"/>
  <rect x="71.44" y="71.81" width="301.58" height="301.58" rx="36.45" ry="36.45" style="fill: none; stroke: #000; stroke-miterlimit: 10; stroke-width: 20px;"/>
  <rect x="414.16" y="123.07" width="29.66" height="20"/>
  <rect x="414.16" y="164.93" width="29.66" height="20"/>
  <rect x="414.16" y="208.78" width="29.66" height="20"/>
  <rect x="413.81" y="250.63" width="29.66" height="20"/>
  <rect x="413.81" y="292.49" width="29.66" height="20"/>
  <rect x=".64" y="292.49" width="29.66" height="20"/>
  <rect x=".64" y="250.64" width="29.66" height="20"/>
  <rect x=".64" y="206.78" width="29.66" height="20"/>
  <rect x=".98" y="164.93" width="29.66" height="20"/>
  <rect x=".98" y="123.08" width="29.66" height="20"/>
  <rect x="127.44" y="1.28" width="20" height="29.66"/>
  <rect x="169.3" y="1.28" width="20" height="29.66"/>
  <rect x="213.15" y="1.28" width="20" height="29.66"/>
  <rect x="255" y="1.63" width="20" height="29.66"/>
  <rect x="296.85" y="1.62" width="20" height="29.66"/>
  <rect x="128.49" y="413.92" width="20" height="29.66"/>
  <rect x="170.34" y="413.91" width="20" height="29.66"/>
  <rect x="214.19" y="413.91" width="20" height="29.66"/>
  <rect x="256.04" y="414.26" width="20" height="29.66"/>
  <rect x="297.9" y="414.25" width="20" height="29.66"/>
</svg>