<svg width="900" height="900" viewBox="0 0 900 900" fill="none" xmlns="http://www.w3.org/2000/svg">
<rect x="250" y="150" width="400" height="100" fill="#005050"/>
<rect x="250" y="650" width="400" height="100" fill="#005050"/>
<rect x="150" y="150" width="100" height="600" fill="#005050"/>
<rect x="650" y="150" width="100" height="600" fill="#005050"/>
<rect x="250" width="100" height="100" fill="#005050"/>
<rect x="400" width="100" height="100" fill="#005050"/>
<rect x="550" width="100" height="100" fill="#005050"/>
<rect x="250" y="800" width="100" height="100" fill="#005050"/>
<rect x="400" y="800" width="100" height="100" fill="#005050"/>
<rect x="550" y="800" width="100" height="100" fill="#005050"/>
<rect x="800" y="400" width="100" height="100" fill="#005050"/>
<rect x="800" y="250" width="100" height="100" fill="#005050"/>
<rect x="800" y="550" width="100" height="100" fill="#005050"/>
<rect y="250" width="100" height="100" fill="#005050"/>
<rect y="400" width="100" height="100" fill="#005050"/>
<rect y="550" width="100" height="100" fill="#005050"/>
</svg>
