<?xml version="1.0" encoding="UTF-8"?>
<svg id="Layer_1" data-name="Layer 1" xmlns="http://www.w3.org/2000/svg" viewBox="0 0 80.3 41.4">
  <path d="M75.5,0H8.7c-2.5,0-4.5,2-4.5,4.5v2.5H.9c-.5,0-.9.4-.9.9v5.7c0,.5.4.9.9.9h3.3v4.3H.9c-.5,0-.9.4-.9.9v10.3c0,.5.4.9.9.9h3.3v1.8c0,2.5,2,4.5,4.5,4.5h2v3.3c0,.5.4.9.9.9h18.6c.5,0,.9-.4.9-.9v-3.3h4.9v3.3c0,.5.4.9.9.9h10.8c.5,0,.9-.4.9-.9v-3.3h27.2c2.5,0,4.5-2,4.5-4.5V4.5c0-2.5-2-4.5-4.5-4.5h-.3ZM4.2,29.1H1.7v-8.5h2.4v8.5h.1ZM4.2,12.8H1.7v-4h2.4v4h.1ZM29.2,39.6H12.4v-2.4h16.8v2.4h0ZM46.6,39.6h-9v-2.4h9v2.4ZM78.3,32.7c0,1.5-1.2,2.8-2.8,2.8H8.7c-1.5,0-2.8-1.2-2.8-2.8V4.5c0-1.5,1.2-2.8,2.8-2.8h66.8c1.5,0,2.8,1.2,2.8,2.8v28.2h0Z"/>
  <path d="M28.1,7H12.1c-.5,0-.9.4-.9.9v2.9c0,.5.4.9.9.9h16c.5,0,.9-.4.9-.9v-2.9c0-.5-.4-.9-.9-.9ZM27.3,9.9h-14.2v-1.1h14.2v1.1Z"/>
  <path d="M28.1,13.2H12.1c-.5,0-.9.4-.9.9v2.9c0,.5.4.9.9.9h16c.5,0,.9-.4.9-.9v-2.9c0-.5-.4-.9-.9-.9ZM27.3,16.1h-14.2v-1.1h14.2v1.1Z"/>
  <path d="M28.1,19.3H12.1c-.5,0-.9.4-.9.9v2.9c0,.5.4.9.9.9h16c.5,0,.9-.4.9-.9v-2.9c0-.5-.4-.9-.9-.9ZM27.3,22.2h-14.2v-1.1h14.2v1.1Z"/>
  <path d="M28.1,25.5H12.1c-.5,0-.9.4-.9.9v2.9c0,.5.4.9.9.9h16c.5,0,.9-.4.9-.9v-2.9c0-.5-.4-.9-.9-.9ZM27.3,28.4h-14.2v-1.1h14.2v1.1Z"/>
</svg>