<?xml version="1.0" encoding="UTF-8"?>
<svg id="Layer_1" data-name="Layer 1" xmlns="http://www.w3.org/2000/svg" viewBox="0 0 28 28">
  <path d="M14,0C6.3,0,0,6.3,0,14s6.3,14,14,14,14-6.3,14-14S21.7,0,14,0ZM15.7,1.9c1.4.2,2.8.6,4,1.3-1.6.8-3,2-3.9,3.5-.7,1.1-1,2.4-1.1,3.7-1.6-2.7-1.3-6.2,1-8.5ZM15.1,14c0,.6-.5,1.1-1.1,1.1s-1.1-.5-1.1-1.1.5-1.1,1.1-1.1,1.1.5,1.1,1.1ZM9.4,2.7c1.3-.5,2.7-.8,4.1-.9-1.8,2.6-2.1,6-.7,8.8-2.7-1.5-4.2-4.7-3.4-7.9ZM7.5,3.7c-.2,1.8.2,3.6,1.1,5.2.7,1.1,1.6,2.1,2.6,2.8-3.1,0-6-2-6.8-5.1.9-1.1,1.9-2.1,3.1-2.8v-.1ZM3.2,8.3c1.3,2.9,4.1,4.8,7.2,5-2.7,1.6-6.2,1.3-8.5-1,.2-1.4.6-2.8,1.3-4ZM1.8,14.5c1.5,1.1,3.3,1.6,5,1.6s2.6-.3,3.7-.9c-1.5,2.7-4.7,4.2-7.9,3.4-.5-1.3-.8-2.7-.9-4.1h.1ZM3.7,20.5h.8c1.5,0,3-.4,4.3-1.2,1.1-.7,2.1-1.6,2.8-2.6,0,3.1-2,6-5.1,6.8-1.1-.9-2.1-1.9-2.8-3.1v.1ZM12.3,26.1c-1.4-.2-2.8-.6-4-1.3,1.6-.8,3-2,3.9-3.5.7-1.1,1-2.4,1.1-3.7,1.6,2.7,1.3,6.2-1,8.5ZM18.6,25.3c-1.3.5-2.7.8-4.1.9,1.8-2.6,2.1-6,.7-8.8,2.7,1.5,4.2,4.7,3.4,7.9ZM20.5,24.3c.3-3.2-1.2-6.2-3.7-8,3.1,0,6,2,6.9,5.1-.9,1.1-1.9,2.1-3.1,2.8l-.1.1ZM24.8,19.7c-1.3-2.9-4.1-4.8-7.2-5,2.7-1.5,6.2-1.2,8.5,1-.2,1.4-.6,2.8-1.3,4ZM26.2,13.5c-1.5-1-3.2-1.6-5-1.6s-2.6.3-3.7.9c.6-1.1,1.5-2,2.6-2.7,1.6-.9,3.5-1.2,5.3-.7.5,1.3.8,2.7.9,4.1h-.1ZM19.2,8.6c-1.1.7-2.1,1.6-2.8,2.6,0-1.2.3-2.5.9-3.6.9-1.6,2.4-2.8,4.2-3.2,1.1.9,2.1,1.9,2.8,3.1-1.8-.2-3.6.2-5.2,1.1h.1Z"/>
</svg>