<?xml version="1.0" encoding="UTF-8"?>
<svg id="Layer_1" data-name="Layer 1" xmlns="http://www.w3.org/2000/svg" viewBox="0 0 445 445">
  <path d="M93.13,179.68h252.74c20.12,0,36.45,16.33,36.45,36.45v181.28c0,20.12-16.33,36.45-36.45,36.45H93.13c-20.12,0-36.45-16.33-36.45-36.45v-181.28c0-20.12,16.33-36.45,36.45-36.45Z" style="fill: none; stroke: #000; stroke-miterlimit: 10; stroke-width: 20px;"/>
  <rect x="73.14" y="94.51" width="130.06" height="20.29" transform="translate(33.51 242.83) rotate(-90)"/>
  <rect x="148.17" y="19.34" width="20.29" height="20.29"/>
  <rect x="168.46" y="-.96" width="102.08" height="20.29"/>
  <rect x="270.25" y="19.34" width="20.29" height="20.29"/>
  <rect x="235.8" y="94.51" width="130.06" height="20.29" transform="translate(196.17 405.49) rotate(-90)"/>
  <rect x="187" y="353.89" width="65" height="20.29" transform="translate(-144.54 583.54) rotate(-90)"/>
  <circle cx="219.5" cy="301.22" r="33.72" style="fill: none; stroke: #000; stroke-miterlimit: 10; stroke-width: 20px;"/>
</svg>