<?xml version="1.0" encoding="UTF-8"?>
<svg id="Layer_1" data-name="Layer 1" xmlns="http://www.w3.org/2000/svg" xmlns:xlink="http://www.w3.org/1999/xlink" viewBox="0 0 445 445">
  <defs>
    <filter id="luminosity-noclip" x="197.86" y="1" width="49.29" height="49.29" color-interpolation-filters="sRGB" filterUnits="userSpaceOnUse">
      <feFlood flood-color="#fff" result="bg"/>
      <feBlend in="SourceGraphic" in2="bg"/>
    </filter>
    <mask id="mask" x="197.86" y="1" width="49.29" height="49.29" maskUnits="userSpaceOnUse">
      <g style="filter: url(#luminosity-noclip);">
        <rect x="212.35" y="15.5" width="20.29" height="20.29" transform="translate(445 51.29) rotate(180)" fill="currentColor"/>
      </g>
    </mask>
  </defs>
  <rect x="-2.77" y="216.26" width="108.61" height="20" transform="translate(277.79 174.72) rotate(90)" fill="currentColor"/>
  <rect x="135.74" y="154.12" width="30" height="20" transform="translate(314.86 13.39) rotate(90)" fill="currentColor"/>
  <rect x="21.24" y="205.65" width="20.29" height="20.29" fill="currentColor"/>
  <rect x="231.54" y="225.94" width="20.29" height="20.29" fill="currentColor"/>
  <rect x="172.84" y="187.53" width="97.11" height="20.29" transform="translate(419.07 -23.72) rotate(90)" fill="currentColor"/>
  <rect x="201.85" y="56.43" width="41.3" height="20.29" transform="translate(155.92 289.08) rotate(-90)" fill="currentColor"/>
  <rect x="276.69" y="154.12" width="30" height="20" transform="translate(455.81 -127.56) rotate(90)" fill="currentColor"/>
  <rect x="242.33" y="292.12" width="20.29" height="20.29" fill="currentColor"/>
  <rect x="131.81" y="293.12" width="20.29" height="20.29" fill="currentColor"/>
  <rect x="131.81" y="393.44" width="186.32" height="20.29" fill="currentColor"/>
  <path d="M129.77,120.65h190.12c20.12,0,36.45,16.33,36.45,36.45v149.34c0,20.12-16.33,36.45-36.45,36.45h-190.12c-20.12,0-36.45-16.33-36.45-36.45v-149.34c0-20.12,16.33-36.45,36.45-36.45Z" style="fill: none; stroke: currentColor; stroke-miterlimit: 10; stroke-width: 20px;"/>
  <rect x="297.56" y="291.62" width="20.29" height="20.29" fill="currentColor"/>
  <rect x="187.04" y="292.62" width="20.29" height="20.29" fill="currentColor"/>
  <rect x="21.24" y="225.94" width="20.29" height="20.29" fill="currentColor"/>
  <rect x="342.23" y="216.26" width="108.61" height="20" transform="translate(622.79 -170.28) rotate(90)" fill="currentColor"/>
  <rect x="406.53" y="205.65" width="20.29" height="20.29" transform="translate(833.36 431.59) rotate(-180)" fill="currentColor"/>
  <rect x="406.53" y="225.94" width="20.29" height="20.29" transform="translate(833.36 472.17) rotate(-180)" fill="currentColor"/>
  <g style="mask: url(#mask);">
    <circle cx="222.5" cy="25.64" r="24.64" fill="currentColor"/>
  </g>
</svg>