<?xml version="1.0" encoding="UTF-8"?>
<svg id="Layer_1" data-name="Layer 1" xmlns="http://www.w3.org/2000/svg" viewBox="0 0 445 445">
  <rect x="262.54" y="55.31" width="113.57" height="20.29"/>
  <rect x="376.11" y="55.31" width="20.29" height="20.29"/>
  <rect x="96.4" y="55.31" width="20.29" height="20.29"/>
  <rect x="55.81" y="55.31" width="20.29" height="20.29"/>
  <rect x="12.3" y="11" width="421.09" height="115.02" rx="36.45" ry="36.45" style="fill: none; stroke: #000; stroke-miterlimit: 10; stroke-width: 20px;"/>
  <rect x="11.61" y="164.56" width="421.09" height="115.02" rx="36.45" ry="36.45" style="fill: none; stroke: #000; stroke-miterlimit: 10; stroke-width: 20px;"/>
  <rect x="12.3" y="318.98" width="421.09" height="115.02" rx="36.45" ry="36.45" style="fill: none; stroke: #000; stroke-miterlimit: 10; stroke-width: 20px;"/>
  <rect x="262.54" y="211.92" width="113.57" height="20.29"/>
  <rect x="376.11" y="211.92" width="20.29" height="20.29"/>
  <rect x="96.4" y="211.92" width="20.29" height="20.29"/>
  <rect x="55.81" y="211.92" width="20.29" height="20.29"/>
  <rect x="260.33" y="366.35" width="113.57" height="20.29"/>
  <rect x="373.9" y="366.35" width="20.29" height="20.29"/>
  <rect x="94.19" y="366.35" width="20.29" height="20.29"/>
  <rect x="53.6" y="366.35" width="20.29" height="20.29"/>
</svg>