<svg width="800" height="950" viewBox="0 0 800 950" fill="none" xmlns="http://www.w3.org/2000/svg">
<rect x="300" width="100" height="100" fill="#005050"/>
<rect x="100" y="650" width="100" height="100" fill="#005050"/>
<rect x="200" y="750" width="100" height="100" fill="#005050"/>
<rect x="300" y="850" width="100" height="100" fill="#005050"/>
<rect x="400" y="850" width="100" height="100" fill="#005050"/>
<rect x="500" y="750" width="100" height="100" fill="#005050"/>
<rect x="300" y="500" width="100" height="100" fill="#005050"/>
<rect x="400" y="400" width="100" height="100" fill="#005050"/>
<rect x="500" y="300" width="100" height="100" fill="#005050"/>
<rect x="200" y="100" width="100" height="100" fill="#005050"/>
<rect y="100" width="200" height="100" fill="#005050"/>
<rect x="200" y="400" width="100" height="100" fill="#005050"/>
<rect x="600" y="650" width="100" height="100" fill="#005050"/>
<rect y="200" width="100" height="450" fill="#005050"/>
<rect x="700" y="200" width="100" height="450" fill="#005050"/>
<rect x="400" width="100" height="100" fill="#005050"/>
<rect x="500" y="100" width="300" height="100" fill="#005050"/>
</svg>
