<?xml version="1.0" encoding="UTF-8"?>
<svg id="Layer_1" data-name="Layer 1" xmlns="http://www.w3.org/2000/svg" viewBox="0 0 445 445">
  <rect x="-40.26" y="159.28" width="175.02" height="20.29" transform="translate(216.68 122.17) rotate(90)"/>
  <rect x="16.74" y="295.44" width="132.38" height="20.29" transform="translate(287.93 64.25) rotate(55.53)"/>
  <rect x="107.39" y="382.73" width="130.92" height="20.29" transform="translate(239.49 -31.14) rotate(32.68)"/>
  <rect x="319.04" y="169.43" width="154.73" height="20.29" transform="translate(575.98 -216.83) rotate(90)"/>
  <rect x="294.53" y="295.45" width="132.38" height="20.29" transform="translate(816.83 181.18) rotate(124.47)"/>
  <rect x="205.35" y="382.74" width="130.92" height="20.29" transform="translate(710.88 577.35) rotate(147.32)"/>
  <rect x="98.48" y="61.51" width="61.37" height="20.29" transform="translate(258.34 143.3) rotate(180)"/>
  <rect x="281.61" y="61.51" width="64.06" height="20.29" transform="translate(627.29 143.3) rotate(180)"/>
  <rect x="200.44" y=".63" width="20.29" height="20.29" transform="translate(421.18 21.55) rotate(180)"/>
  <rect x="220.74" y=".63" width="20.29" height="20.29" transform="translate(461.76 21.55) rotate(180)"/>
  <rect x="180.15" y="20.92" width="20.29" height="20.29" transform="translate(380.59 62.13) rotate(180)"/>
  <rect x="159.86" y="41.21" width="20.29" height="20.29"/>
  <rect x="261.32" y="41.21" width="20.29" height="20.29" transform="translate(542.93 102.72) rotate(180)"/>
  <rect x="241.03" y="20.92" width="20.29" height="20.29" transform="translate(502.35 62.13) rotate(180)"/>
  <rect x="345.68" y="41.33" width="20.29" height="20.29" transform="translate(711.64 102.95) rotate(180)"/>
  <rect x="365.97" y="61.62" width="20.29" height="20.29" transform="translate(752.23 143.54) rotate(180)"/>
  <rect x="386.26" y="81.92" width="20.29" height="20.29" transform="translate(792.81 184.13) rotate(180)"/>
  <rect x="77.69" y="41.21" width="20.29" height="20.29"/>
  <rect x="57.4" y="61.51" width="20.29" height="20.29"/>
  <rect x="145.74" y="201.83" width="149.99" height="20.29" transform="translate(226.93 517.94) rotate(-135)"/>
  <rect x="145.74" y="201.83" width="149.99" height="20.29" transform="translate(526.71 205.78) rotate(135)"/>
</svg>