<?xml version="1.0" encoding="UTF-8"?>
<svg id="Layer_1" data-name="Layer 1" xmlns="http://www.w3.org/2000/svg" viewBox="0 0 448.57 448.05">
  <rect x="325.72" y="324.82" width="20.29" height="20.29"/>
  <rect x="346.02" y="345.11" width="20.29" height="20.29"/>
  <rect x="366.31" y="365.4" width="20.29" height="20.29"/>
  <rect x="101.82" y="101.93" width="20.29" height="20.29"/>
  <rect x="61.32" y="61.35" width="20.29" height="20.29"/>
  <rect x="81.61" y="81.64" width="20.29" height="20.29"/>
  <rect x="324.84" y="100.3" width="20.29" height="20.29" transform="translate(224.54 445.43) rotate(-90)"/>
  <rect x="345.13" y="80.01" width="20.29" height="20.29" transform="translate(265.12 445.43) rotate(-90)"/>
  <rect x="365.42" y="59.71" width="20.29" height="20.29" transform="translate(305.71 445.43) rotate(-90)"/>
  <rect x="101.95" y="324.21" width="20.29" height="20.29" transform="translate(-222.26 446.45) rotate(-90)"/>
  <rect x="61.37" y="364.7" width="20.29" height="20.29" transform="translate(-303.34 446.36) rotate(-90)"/>
  <rect x="81.66" y="344.41" width="20.29" height="20.29" transform="translate(-262.75 446.36) rotate(-90)"/>
  <rect x="3.7" y="214.4" width="20.29" height="20.29" transform="translate(-154.72 75.56) rotate(-45)"/>
  <rect x="32.17" y="214.54" width="20.29" height="20.29" transform="translate(-146.48 95.74) rotate(-45)"/>
  <rect x="61.23" y="214.27" width="20.29" height="20.29" transform="translate(-137.78 116.2) rotate(-45)"/>
  <rect x="366.81" y="213.34" width="20.29" height="20.29" transform="translate(-47.62 332.01) rotate(-45)"/>
  <rect x="395.87" y="213.07" width="20.29" height="20.29" transform="translate(-38.92 352.48) rotate(-45)"/>
  <rect x="424.57" y="213.07" width="20.29" height="20.29" transform="translate(-30.51 372.77) rotate(-45)"/>
  <rect x="211.63" y="61.78" width="20.29" height="20.29" transform="translate(327.73 279.61) rotate(-135)"/>
  <rect x="211.63" y="33.09" width="20.29" height="20.29" transform="translate(348.02 230.62) rotate(-135)"/>
  <rect x="211.63" y="4.39" width="20.29" height="20.29" transform="translate(368.31 181.63) rotate(-135)"/>
  <rect x="213.65" y="421.36" width="20.29" height="20.29" transform="translate(76.93 894.88) rotate(-135)"/>
  <rect x="213.65" y="392.66" width="20.29" height="20.29" transform="translate(97.22 845.89) rotate(-135)"/>
  <rect x="213.18" y="363.49" width="20.29" height="20.29" transform="translate(117.04 795.75) rotate(-135)"/>
</svg>