<?xml version="1.0" encoding="UTF-8"?>
<svg id="Layer_1" data-name="Layer 1" xmlns="http://www.w3.org/2000/svg" viewBox="0 0 445 445">
  <rect x="125.25" y="146.58" width="60" height="20" transform="translate(375.74 157.51) rotate(135)"/>
  <rect x="261.3" y="146.58" width="60" height="20" transform="translate(607.99 61.31) rotate(135)"/>
  <rect x="260.52" y="146.58" width="60" height="20" transform="translate(195.81 -159.57) rotate(45)"/>
  <rect x="124.48" y="146.58" width="60" height="20" transform="translate(155.96 -63.37) rotate(45)"/>
  <rect x="71.78" y="72.61" width="301.58" height="301.58" rx="36.45" ry="36.45" style="fill: none; stroke: #000; stroke-miterlimit: 10; stroke-width: 20px;"/>
  <rect x="414.5" y="123.87" width="29.66" height="20"/>
  <rect x="414.5" y="165.73" width="29.66" height="20"/>
  <rect x="414.5" y="209.58" width="29.66" height="20"/>
  <rect x="414.16" y="251.43" width="29.66" height="20"/>
  <rect x="414.16" y="293.29" width="29.66" height="20"/>
  <rect x=".99" y="293.29" width="29.66" height="20" transform="translate(31.64 606.58) rotate(180)"/>
  <rect x=".99" y="251.43" width="29.66" height="20" transform="translate(31.64 522.87) rotate(180)"/>
  <rect x=".99" y="207.58" width="29.66" height="20" transform="translate(31.64 435.16) rotate(180)"/>
  <rect x="1.33" y="165.73" width="29.66" height="20" transform="translate(32.32 351.45) rotate(180)"/>
  <rect x="1.33" y="123.87" width="29.66" height="20" transform="translate(32.32 267.75) rotate(180)"/>
  <rect x="172.03" y="294.55" width="105" height="20.29"/>
  <rect x="277.03" y="314.26" width="20.29" height="20.29"/>
  <rect x="151.74" y="314.26" width="20.29" height="20.29"/>
  <rect x="234.68" y="243.97" width="20.29" height="20.29"/>
  <rect x="163.83" y="193.4" width="121.42" height="20.29" transform="translate(428.09 -20.98) rotate(90)"/>
  <rect x="122.96" y="6.91" width="29.66" height="20" transform="translate(120.88 154.7) rotate(-90)"/>
  <rect x="164.81" y="6.91" width="29.66" height="20" transform="translate(162.73 196.55) rotate(-90)"/>
  <rect x="208.67" y="6.91" width="29.66" height="20" transform="translate(206.59 240.41) rotate(-90)"/>
  <rect x="250.52" y="7.25" width="29.66" height="20" transform="translate(248.1 282.6) rotate(-90)"/>
  <rect x="292.37" y="7.25" width="29.66" height="20" transform="translate(289.95 324.46) rotate(-90)"/>
  <rect x="124" y="419.55" width="29.66" height="20" transform="translate(-290.72 568.37) rotate(-90)"/>
  <rect x="165.85" y="419.55" width="29.66" height="20" transform="translate(-248.86 610.23) rotate(-90)"/>
  <rect x="209.71" y="419.55" width="29.66" height="20" transform="translate(-205.01 654.08) rotate(-90)"/>
  <rect x="251.56" y="419.89" width="29.66" height="20" transform="translate(-163.5 696.28) rotate(-90)"/>
  <rect x="293.41" y="419.89" width="29.66" height="20" transform="translate(-121.65 738.13) rotate(-90)"/>
  <rect x="297.33" y="334.55" width="20.29" height="20.29"/>
  <rect x="131.45" y="334.55" width="20.29" height="20.29"/>
</svg>