<?xml version="1.0" encoding="UTF-8"?>
<svg id="Layer_1" data-name="Layer 1" xmlns="http://www.w3.org/2000/svg" viewBox="0 0 445 445">
  <rect x="71.79" y="72" width="301.58" height="301.58" rx="36.45" ry="36.45" style="fill: none; stroke: #000; stroke-miterlimit: 10; stroke-width: 20px;"/>
  <rect x="414.51" y="123.26" width="29.66" height="20"/>
  <rect x="414.51" y="165.12" width="29.66" height="20"/>
  <rect x="414.51" y="208.97" width="29.66" height="20"/>
  <rect x="414.16" y="250.82" width="29.66" height="20"/>
  <rect x="414.16" y="292.68" width="29.66" height="20"/>
  <rect x=".99" y="292.68" width="29.66" height="20" transform="translate(31.64 605.36) rotate(180)"/>
  <rect x=".99" y="250.82" width="29.66" height="20" transform="translate(31.64 521.65) rotate(180)"/>
  <rect x=".99" y="206.97" width="29.66" height="20" transform="translate(31.64 433.94) rotate(180)"/>
  <rect x="1.34" y="165.12" width="29.66" height="20" transform="translate(32.33 350.24) rotate(180)"/>
  <rect x="1.34" y="123.26" width="29.66" height="20" transform="translate(32.33 266.53) rotate(180)"/>
  <rect x="172.04" y="293.94" width="105" height="20.29"/>
  <rect x="277.04" y="273.65" width="20.29" height="20.29"/>
  <rect x="151.75" y="273.65" width="20.29" height="20.29"/>
  <rect x="234.68" y="243.36" width="20.29" height="20.29"/>
  <rect x="163.83" y="192.8" width="121.42" height="20.29" transform="translate(427.48 -21.6) rotate(90)"/>
  <rect x="122.96" y="6.3" width="29.66" height="20" transform="translate(121.49 154.09) rotate(-90)"/>
  <rect x="164.82" y="6.3" width="29.66" height="20" transform="translate(163.35 195.95) rotate(-90)"/>
  <rect x="208.67" y="6.3" width="29.66" height="20" transform="translate(207.2 239.8) rotate(-90)"/>
  <rect x="250.52" y="6.64" width="29.66" height="20" transform="translate(248.71 282) rotate(-90)"/>
  <rect x="292.38" y="6.64" width="29.66" height="20" transform="translate(290.56 323.85) rotate(-90)"/>
  <rect x="124" y="418.94" width="29.66" height="20" transform="translate(-290.1 567.77) rotate(-90)"/>
  <rect x="165.86" y="418.94" width="29.66" height="20" transform="translate(-248.25 609.62) rotate(-90)"/>
  <rect x="209.71" y="418.94" width="29.66" height="20" transform="translate(-204.4 653.47) rotate(-90)"/>
  <rect x="251.56" y="419.28" width="29.66" height="20" transform="translate(-162.89 695.67) rotate(-90)"/>
  <rect x="293.42" y="419.28" width="29.66" height="20" transform="translate(-121.03 737.52) rotate(-90)"/>
  <rect x="275.93" y="146.83" width="29.19" height="20" transform="translate(447.35 -133.7) rotate(90)"/>
  <rect x="139.88" y="146.83" width="29.19" height="20" transform="translate(311.3 2.35) rotate(90)"/>
</svg>