<?xml version="1.0" encoding="UTF-8"?>
<svg id="Layer_1" data-name="Layer 1" xmlns="http://www.w3.org/2000/svg" viewBox="0 0 445 445">
  <rect x="281" y="21.04" width="20.29" height="20.29"/>
  <rect x="301.29" y=".75" width="102.08" height="20.29"/>
  <rect x="403.37" y="21.04" width="20.29" height="20.29"/>
  <path d="M63.83,179.71h252.74c20.12,0,36.45,16.33,36.45,36.45v181.28c0,20.12-16.33,36.45-36.45,36.45H63.83c-20.12,0-36.45-16.33-36.45-36.45v-181.28c0-20.12,16.33-36.45,36.45-36.45Z" style="fill: none; stroke: #000; stroke-miterlimit: 10; stroke-width: 20px;"/>
  <rect x="205.97" y="96.22" width="130.06" height="20.29" transform="translate(164.63 377.36) rotate(-90)"/>
  <rect x="368.63" y="96.22" width="130.06" height="20.29" transform="translate(327.29 540.03) rotate(-90)"/>
  <rect x="156.28" y="343.52" width="65" height="20.29" transform="translate(-164.89 542.45) rotate(-90)"/>
  <circle cx="188.78" cy="290.86" r="33.72" style="fill: none; stroke: #000; stroke-miterlimit: 10; stroke-width: 20px;"/>
</svg>